<?xml version="1.0" encoding="utf-8"?>
<!-- Generator: Adobe Illustrator 16.0.0, SVG Export Plug-In . SVG Version: 6.00 Build 0)  -->
<!DOCTYPE svg PUBLIC "-//W3C//DTD SVG 1.1//EN" "http://www.w3.org/Graphics/SVG/1.1/DTD/svg11.dtd">
<svg version="1.1" id="Ebene_1" xmlns="http://www.w3.org/2000/svg" xmlns:xlink="http://www.w3.org/1999/xlink" x="0px" y="0px"
	 width="841.89px" height="595.28px" viewBox="0 0 841.89 595.28" enable-background="new 0 0 841.89 595.28" xml:space="preserve">
<g>
	<path fill-rule="evenodd" clip-rule="evenodd" d="M726.513,80.08c0,7.827-0.365,10.237,6.877,13.356
		c-9.721,7.847-27.833-3.25-37.799-5.92c-13.574-3.637-29.711-4.272-43.735-4.112c-16.607,0.188-32.33,2.601-48.59,5.694
		c-8.06,1.533-16.118,3.073-24.141,4.793c-5.435,1.165-1.602,5.774-10.518,5.595c-0.548-0.013,3.384-2.729,3.067-2.47
		c-3.268-3.805-24.457-0.496-29.305,1.037c-9.855,3.117-22.63-9.211-32.107,0.734c10.895,4.672,27.43,7.39,36.354,16.327
		c8.071,8.082,27.027,16.48,24.16,30.123c-0.925-0.819-5.124-4.223-6.604-2.767c-2.711,2.665-6.191-1.54-8.951-2.501
		c-0.249,2.046-0.611,4.072-1.087,6.078c-3.676-0.946-25.094-12.797-20.606-0.714c-9.993,3.333-19.043-5.101-26.324,0.798
		c-2.472,2.005-22.896,12.701-25.304,10.519c-1.457-1.324,1.791-5.082,0.616-6.643c-1.089-0.863-2.316-1.435-3.682-1.716
		c-2.509-1-5.471-6.74-7.076-9.092c0.426-0.096,6.13-0.456,6.637-1.052c2.197-2.579,0.109-5.717-3.133-4.748
		c-4.38,1.312-8.493,3.418-12.984,4.382c-2.146,0.461-9.219-5.867-7.983-6.546c12.894-7.271,36.976-6.545,51.006-5.049
		c-1.305,5.56-2.869,9.657,3.919,8.256c9.455-1.951-1.999-5.164,8.057-8.171c1.418,10.068,7.942,0.282,14.48,2.579
		c4.084,1.436,10.36,5.531,14.953,4.728c7.143-1.25,6.327-7.45,2.617-11.19c-2.957-2.979-5.935-5.015-9.513-7.166
		c-4.233-2.545-7.703,1.931-12.494,1.148c-4.897-0.8-26.833-5.635-23.478,4.104c-5.165-0.478-9.647,0.303-13.99-0.83
		c-6.813-1.777-2.999-7.161-11.317-4.026c0.403,2.094,1.453,3.593,3.149,4.496c-13.321,0.869-24.616,5.346-36.918,1.884
		c-9.979-2.808-7.999,0.176-8.3,6.715c-0.229,4.939,0.721,14.293,8.209,9.586c1.745,11.044-3.53,2.258-9.606,6.809
		c2.353,1.541,4.922,2.61,7.708,3.207c-0.826,1.039-7.088,7.573-7.146,2.02c-0.045-4.266-6.987-2.643-9.65-3.513
		c9.361-4.862,7.146-8.541-2.966-5.55c11.13-11.658-18.369-11.063-6.894-0.054c-10.145-1.948-12.416-0.262-2.997,5.526
		c-2.813,1.694-5.684-1.041-7.827,1.419c-3.461,3.973-3.747,4.35-9.312,1.669c-2.251-1.077,6.452-3.965,7.805-4.267
		c-0.877-2.896-15.214,0.454-9.099-7.5c6.847,5.503,16.395-18.688,2.372-17.204c-5.328,0.565-9.572,3.138-15.564,3.079
		c-4.188-0.042-22.676-5.349-24.082-3.943c1.568-0.927,2.617-2.36,3.145-4.299c-7.684-2.929-3.86-0.04-9.029,3.224
		c-2.899,1.831-12.785,1.309-16.232,1.589c3.072-9.514-34.415-5.521-40.171-1.998c-3.498,2.14-16.53,15.363-2.696,15.066
		c10.177-0.221,17.292-11.186,26.32-1.752c2.287-1.385,3.271-3.236,2.953-5.552c6.128,1.731,3.945,7.242,4.453,7.391
		c4.819,1.406,11.506,3.24,8.34-3.71c-4.362-9.572,30.555-2.879,36.089-1.752c0.853,0.174,14.827,2.552,14.167,3.513
		c-3.705,5.397-5.827,6.158-12.09,3.918c-2.167-0.774-10.013-3.822-12.065-1.476c-4.302,4.922,5.093,4.477,6.625,4.29
		c-3.82,5.234-11.003,11.449-9.948,16.954c0.521,2.718-23.266-6.454-25.195-9.03c-4.883-6.523-25.182,4.464-25.898-2.563
		c-1.437-13.936-20.383,12.434-22.284-3.798c-4.764,1.035-11.633,2.077-15.547,5.255c-5.006-9.789,15.873-24.404,22.365-29.238
		c10.578-7.875,25.496-14.239,38.067-17.178c-8.613-8.424-25.369,0.034-35.447-0.537c-6.871-0.389-12.81-3.447-19.767-3.204
		c-3.364,0.118-9.635,1.811-2.939,3.951c-2.858,2.334-15.123-6.409-19.875-7.536c-18.612-4.41-37.391-7-56.497-7.784
		c-14.534-0.596-29.536-0.39-43.869,2.248c-11.224,2.065-34.177,15.277-44.71,7.513c11.851-5.811,0.536-14.884,7.618-21.9
		c2.181-2.161,12.469,0.576,15.559,0.537c4.745-0.06,12.481-4.379,16.72-6.233c26.521-11.605,59.834-15.666,88.627-16.836
		c14.599-0.593,28.484-1.104,42.736,1.611c13.947,2.657,30.516-4.419,44.992-4.268c15.453,0.162,30.907,0.314,46.358,0.612
		c15.298,0.295,29.696,3.662,45.045,3.839c26.988,0.312,54.347-3.481,81.802-4.077c13.234-0.287,27.484-2.028,40.451,1.108
		c6.478,1.566,13.458,3.544,20.17,3.459c6.884-0.087,12.179-3.441,19.256-3.215c29.762,0.953,59.563,1.953,88.827,8.027
		c12.7,2.636,23.344,8.672,35.599,12.119c6.179,1.737,12.503,4.781,19.078,3.591C727.24,70.299,726.513,71.464,726.513,80.08z
		 M377.136,116.505c0.83,1.396,1.941,0.946,3.334-1.353c-2.777-1.549-5.366-1.922-8.232-3.115
		c7.729-8.146-3.904-12.098-9.261-17.109c6.941-3.526,25.785-5.745,33.368-3.405c4.617,1.424,5.814,4.274,10.872,4.056
		c4.386-0.19,8.139-3.913,12.044-3.856c3.508,0.051,6.819,1.628,10.096,2.664c6.084,1.924,10.188-2.042,16.127-2.954
		c10.154-1.559,20.551,2.424,30.597,3.535c-4.807,4.33-18.199,10.048-9.261,17.109c-2.956,0.288-5.701,1.25-8.236,2.884
		c3.895,1.323,7.472,2.43,11.587,2.661c0.002-0.246-0.747-5.376-0.938-4.886c0.601-1.538,14.331-2.605,15.493-2.564
		c6.213,0.222,18.083-4.539,22.047-9.367c0.698-0.853-26.287-3.965-7.605-17.161c6.175-4.361,16.839-8.979,4.619-11.757
		c-10.452-2.377-21.347,0.997-31.318,4.125c-10.589,3.321-14.089,7.515-26.139,5.256c-10.965-2.054-22.391-7.127-33.656-4.94
		c-8.727,1.694-17.21,4.562-25.993,5.954c-10.701,1.695-14.752-4.09-23.829-8.098c-10.177-4.494-21.543-2.942-32.179-1.19
		c-5.764,0.949,13.332,13.203,15.241,15.015c2.857,2.711,3.407,4.325-0.93,6.946c-2.075,1.255-3.306,4.374-6.043,4.509
		c-2.889,0.143-3.364-1.98-6.211-0.792c-1.451,0.606,10.059,9.151,12.067,9.824c2.856,0.957,24.254,1.812,25.05,4.314
		c-0.105-0.333-0.927,4.458-0.918,4.841C371.697,117.541,374.433,117.158,377.136,116.505
		C377.288,116.691,375.274,116.83,377.136,116.505z M492.924,110.181C483.293,117.594,508.847,119.805,492.924,110.181
		C491.436,111.327,495.16,111.533,492.924,110.181z M345.371,117.439c1.372-1.43,2.743-2.86,4.115-4.29
		C342.155,106.964,336.562,119.763,345.371,117.439C346.743,116.009,341.342,118.502,345.371,117.439z M399.127,111.791
		c-1.474,1.338-2.949,2.675-4.423,4.013C399.747,119.222,403.192,116.913,399.127,111.791
		C397.258,113.487,400.36,113.344,399.127,111.791z M442.446,110.811C429.843,112.917,447.785,124.755,442.446,110.811
		C441.23,111.014,443.097,112.51,442.446,110.811z"/>
	<path fill-rule="evenodd" clip-rule="evenodd" d="M736.748,166.379c0,11.947,1.188,12.671-6.941,18.685
		c0.793,0.808,1.647,1.543,2.564,2.207c-4.042,4.054-4.746,3.781-2.134,8.744c3.917,7.441-4.051,3.337-5.588-1.721
		c-1.186-3.903-15.327,1.3-18.93-7.418c-0.226-0.549,10.333,1.124,10.378-3.583c0.109-11.865-0.399-10.002,10.5-12.016
		c-1.078-2.872-1.696-14.264,0.835-14.068c0.408-8.038-10.37-5.027-11.995,1.554c2.059-0.044,4.031-0.463,5.915-1.257
		c-2.88,10.324-15.836,18.274-26.026,16.969c4.004,5.729,1.997,5.882,5.951,2.779c1.744,2.909,1.174,3.218-1.631,4.695
		c-4.214,2.218,3.101,5.793,3.43,7.122c-1.06,0.758-1.696,1.73-1.909,2.916c4.336,3.921,8.987,7.241,13.696,10.685
		c3.58,2.611,8.248,1.432,9.983,4.424c-3.663,0.471-7.19,9.479-9.078,8.891c-2.397-0.746-3.483-4.049-5.27-5.526
		c-1.534-1.27-3.617,2.026-5.882,1.509c-3.816-0.873-6.44,2.881-3.432,5.536c2.519,2.223,12.302,4.59,12.55,6.119
		c4.688-3.525,5.687-4.837,12.364-2.854c9.259,2.75,1.229,6.276,5.099,11.074c3.301,4.092,2.637,5.679,4.966,10.766
		c2.349,5.128,8.472,5.129,10.872,10.887c3.006,7.21-3.521,8.27-8.158,11.325c-5.074,3.345-2.102,17.746-2.228,22.954
		c-0.056,2.483-8.752,2.84-6.049,4.925c6.111,4.714,7.681,6.21,5.762,14.587c-2.854-2.081-4.235-6.682-7.981-7.427
		c-6.231-1.24-5.211,9.522-5.331,12.585c0.068-1.755-10.482,5.486-11.072,5.723c-5.063,2.033-12.565-1.264-16.211,3.604
		c-3.978,5.312,0.5,10.622,2.975,15.027c5.312,9.461-11.584,5.938-14.795,6.032c-6.036,0.177-6.158,6.3-11.17,7.326
		c-6.067,1.242-11.648,0.768-16.525,4.575c-2.479,1.935-33.702-15.715-36.896-19.175c-3.498-3.789-1.207-9.581-5.2-13.421
		c-5.07-4.878-12.639-4.409-13.722-13.016c-0.889-7.053-0.182-4.881-3.325-10.429c-2.194-3.874,2.779-11.618,3.498-15.271
		c1.194-6.075-0.228-21.973,3.781-26.52c4.345-4.927,8.891-3.723,8.572-13.066c-0.286-8.42-6.471-2.889-8.548-8.896
		c-2.464-7.126-0.742-15.312-3.257-22.509c-2.526-7.228-5.76-14.178-8.959-21.125c-2.115-4.594-9.587-14.772-8.23-19.926
		c1.107-4.209,0.447-10.242,4.777-12.492c7.904-4.105,15.71-8.021,23.914-11.526c18.137-7.748,36.593-14.863,55.086-21.701
		c7.205-2.664,15.229-3.586,22.789-4.689c7.506-1.095,17.036,1.126,23.995-0.626c14.727-3.708,8.439,14.794,16.567,15.552
		c13.741,1.287-14.162,5.171-12.004,9.72c3.902,8.209,8.534,3.479,15.369,5.31C738.994,152.141,736.748,163.01,736.748,166.379z
		 M694.094,172.626c-4.011-0.213-5.091,1.058-7.894,3.685c-0.555-3.202-3.002-6.35-6.491-4.408
		c-7.134,3.97-5.386,8.962-6.861,16.198c-2.568,12.596-14.271,39.056,0.896,46.228c4.459-10.024,0.334-3.346-1.085-8.458
		c-1.188-4.282,4.442-15.79,5.679-20.148C681.656,194.026,688.136,183.42,694.094,172.626
		C693.424,172.59,689.49,180.966,694.094,172.626z M688.087,314.526c7.815-1.74,5.557-2.927,4.389-10.091
		c-0.984-6.04-5.267-19.331-11.826-21.483c-7.143-2.343-3.652,12.313-2.851,15.723C679.973,307.929,678.525,312.164,688.087,314.526
		C692.024,313.649,686.34,314.095,688.087,314.526z M715.292,143.291c-3.083-3.896-13.57-6.274-15.461,0.574
		c-0.745,2.699,9.017,6.958,10.849,8.02C713.027,153.245,714.956,144.21,715.292,143.291
		C714.04,141.709,714.332,145.915,715.292,143.291z M690.468,251.992c2.726-1.161,5.192-2.726,7.4-4.695
		c-0.576-0.344-10.2-5.723-7.09-6.942c-2.203,0.863-8.101,1.548-7.087,5.35C684.405,248.384,687.381,252.028,690.468,251.992
		C691.391,251.51,686.781,252.036,690.468,251.992z M672.179,241.807c-4.884,1.931,5.132,13.941,9.81,14.335
		C681.75,248.501,678.283,244.557,672.179,241.807C671.188,242.198,675.254,243.192,672.179,241.807z M719.714,230.545
		c3.357-1.799,5.743-4.106,3.051-7.405C718.499,227.356,718.815,226.16,719.714,230.545
		C720.677,230.029,719.465,229.33,719.714,230.545z"/>
	<path fill-rule="evenodd" clip-rule="evenodd" d="M102.32,166.407c0-3.308-1.818-13.965,1.551-15.599
		c5.035-2.443,13.55,4.559,15.118-4.403c1.022-5.843-3.573-4.946-8.423-5.392c-7.77-0.714-7.446-4.313-0.577-4.917
		c5.574-0.49,2.204-6.701,2.529-9.737c0.682-6.356,10.281-5.374,13.921-6.188c14.485-3.243,36.779,1.558,50.296,6.863
		c15.857,6.224,31.576,12.656,47.084,19.704c9.498,4.316,26.236,6.426,29.338,18.123c3.227,12.168-4.212,21.533-9.473,32.887
		c-3.446,7.438-6.601,15.126-7.581,23.326c-0.659,5.513,1.116,16.271-6.642,17.289c-5.316,0.699-1.906,10.176-1.125,11.795
		c3.974,8.252,6.874,9.884,8.219,20.274c0.833,6.431,1.532,12.18,3.608,18.311c2.825,8.344-1.851,11.654-2.129,19.892
		c-0.177,5.242-0.965,8.266-6.178,10.12c-8.393,2.984-7.825,5.75-10.528,13.258c-3.876,10.762-27.579,15.995-35.879,22.771
		c-2.977,2.438-6.069-2.826-10.08-3.824c-3.537-0.604-7.099-0.977-10.684-1.118c-2.108-0.236-3.423-5.115-5.765-6.232
		c-4.804-2.292-9.196,1.331-14.022-0.031c-10.141-2.862-1.708-8.837-0.677-15.416c0.863-5.512-3.076-9.401-8.672-9.234
		c-7.455,0.223-8.891-4.527-14.543-5.315c-8.195-1.143-2.771-10.883-8.691-14.007c-3.203-1.69-7.047,6.431-9.776,7.59
		c-2.221-11.133,2.548-8.678,6.051-16.153c-12.896-4.283-0.738-16.79-7.029-24.992c-1.993-2.598-6.976-2.042-8.418-5.092
		c-3.453-7.303,1.876-11.334,7.307-14.598c3.557-2.139,7.919-17.222,7.919-20.465c0.001-7.574,12.773-6.686,16.283-2.111
		c1.759-4.414,25.834-8.865,6.788-13.19c-3.951-0.898-4.786,2.247-7.076,5.155c-1.748,2.223-7.875-7.817-9.871-8.993
		c5.763-1.175,26.271-13.382,20.48-16.814c3.468-3.474,8.412-8.003,1.413-9.944c3.184-6.054,0.966,3.378,7.35-5.263
		c-7.06-0.127-28.373-6.819-26.04-17.208c1.941,0.793,3.97,1.16,6.087,1.101c-2.345-6.808-3.615-7.685-10.775-4.084
		c-1.64,0.825,1.151,12.725-0.465,16.922c3.357,0.345,10.763-0.89,10.683,3.782c-0.024,1.413-2.151,10.307,0.593,10.827
		c2.671,0.508,9.168-0.575,9.878,1.766c1.062,3.504-4.525,5.383-6.858,3.582c0.273,0.211-7.302,1.743-8.932,1.196
		c-3.642-1.222-5.138,6.116-7.846,8.06c-3.463,2.486-0.55-5.668,0.305-6.758c2.225-2.838-2.045-4.992-3.74-6.836
		c0.913-0.561,1.808-1.149,2.686-1.764c-2.234-2.716-0.737-0.393-4.939-2.26C100.136,181.177,102.32,169.858,102.32,166.407
		C102.32,161.601,102.32,170.128,102.32,166.407z M164.025,178.523c0.694-0.49,1.388-0.979,2.083-1.469
		c-4.246-3.457-12.368-10.304-13.39-0.75c-9.631-12.037-0.906,10.288,1.171,13.839c3.771,6.445,15.3,27.077,12.971,34.892
		c-0.489,1.641-6.875,6.373-1.819,9.052c4.598,2.437,7.428-8.958,7.432-11.386C172.497,207.404,167.904,193.162,164.025,178.523
		C164.719,178.033,166.346,187.28,164.025,178.523z M156.781,314.345c2.693-6.434,5.114-13.486,5.37-20.519
		c-0.01,0.283,0.543-16.258-4.25-10.844c-6.109,6.903-9.393,12.864-11.509,21.975C144.046,315.052,147.591,313.821,156.781,314.345
		C157.341,313.006,152.461,314.099,156.781,314.345z M129.185,138.767c-9.229,0.318-2.376,13.589-0.795,12.866
		C141.877,145.472,141.959,143.779,129.185,138.767C125.772,138.884,132.461,140.052,129.185,138.767z M150.35,252.877
		c1.687-2.414,5.748-5.758,4.094-9.135c-1.688-3.445-4.457-5.155-6.869-1.541C142.775,249.393,139.905,247.729,150.35,252.877
		C151.859,250.717,146.838,251.146,150.35,252.877z M157.932,256.916c1.826,0.363,6.645-2.122,5.585-4.427
		c-1.521-3.312,4.642-6.646,5.658-10.052C161.297,243.96,155.09,247.715,157.932,256.916
		C158.615,257.051,157.552,255.687,157.932,256.916z M116.868,229.962c3.78-3.547,4.159-2.078-0.523-6.81
		C114.146,225.715,115.542,226.837,116.868,229.962C118.572,228.363,115.891,227.659,116.868,229.962z"/>
	<path fill-rule="evenodd" clip-rule="evenodd" d="M329.019,387.497c10.15-5.44,11.308-16.844,12.442-27.922
		c-8.539,3.466-6.918-4.833-15.142,4.368c-0.053,0.06-4.014-1.432-3.666-1.325c-2.923-0.894-7.76,6.48-9.583,8.185
		c-0.348,0.324-21.822-23.442-22.984-11.838c-2.568-3.098-3.304-6.945-6.559-9.05c-0.551,1.888-1.029,3.794-1.435,5.718
		c-4.706-4.043-2.875-14.048-3.483-20.082c-1.034-10.19,5.71-18.532,13.238-23.933c2.852,5.934,2.62,8.956,1.297,15.611
		c-1.161,5.845-5.141,7.251-4.14,12.98c3.172,18.161,19.851,8.736,28.286-0.311c0.755-1.897,1.329-3.849,1.719-5.853
		c1.994-2.308,5.532,0.21,7.193-3.053c2.241-4.403-2.07-9.893,5.373-8.223c2.214,0.563,4.427,0.443,6.64-0.362
		c4.865-0.962,6.967,3.923,11.466,4.917c4.166-1.636,6.014-0.412,5.545,3.671c0.703,5.551,1.075,11.15,2.195,16.643
		c0.916,4.493,7.557,6.445,10.292,2.519c4.812-6.908,5.885-18.608,8.239-26.616c2.638-8.971,4.149-12.358,10.785-18.257
		c6.547-5.815,5.505-5.703,12.508-1.721c7.747,4.405,5.58,33.612,15.469,23.829c6.49-6.413,4.48-4.508,10.086,0.939
		c5.847,5.678,7.899-3.879,8.276-8.325c1.174-13.82,8.812-25.195,21.417-13.765c6.179,5.603,7.574,14.104,9.851,21.765
		c1.542,5.188,3.692,21.702,9.618,24.128c15.344,6.282,3.171-28.688,15.772-24.787c4.043,1.25,6.898-5.717,12.845-4.767
		c5.849,0.936,9.58-2.982,9.947,4.703c0.242,5.069,1.105,5.036,5.536,5.805c2.034,0.353,8.906,11.816,11.354,13.993
		c12.826,11.401,26.31-3.199,16.975-15.312c-7.992-10.369,2.547-29.77,10.852-9.398c1.081,3.028,1.97,6.113,2.667,9.254
		c3.068,11.861,0.917-0.098-1.635,8.73c-1.654,5.725,2.618,8.715-0.546,15.249c-1.925-1.009-1.617-3.562-2.192-5.691
		c-3.549,2.298-3.278,6.921-6.577,9.022c-0.938-1.022-1.447-2.28-1.529-3.771c-5.604,2.147-10.794,4.511-15.062,8.908
		c-8.269,8.522-5.154,7.106-14.479-1.526c-4.396-4.07-2.341,6.938-7.869-2.229c-3.824-6.354-6.836,1.956-12.249-0.898
		c-2.231,6.274,2.408,15.006,3.887,21.261c1.013,4.287,5.279,4.15,8.395,6.816c-7.563,8.104-16.642,14.071-25.749,7.555
		c8.152-10.531-7.251-10.744-2.353-20.749c4.424-9.007-9.975-3.679-12.188-8.62c-0.319-0.715,0.098-7.134-3.026-1.854
		c-3.384,5.717,7.928,9.003-1.49,13.114c-5.604,2.445-8.682-8.559-8.141,1.68c0.41,7.782,8.298,3.425,8.253,11.215
		c4.161-1.881,14.406,0.24,15.314,6.343c1.663,11.183,1.006,15.549-3.161,27.094c-1.771,4.906-1.747,11.563-6.084,15.039
		c-4.348,3.484-6.387,9.676-7.863,14.896c-0.334,1.184,0.459,8.292,0.357,10.322c-0.401,7.99,6.341,13.91,2.308,22.194
		c-7.54-4.992-10.892-27.823-13.254-36.826c3.062,1.078,5.377,6.439,5.937,10.753c4.229-2.044-0.166-15.015-3.722-17.589
		c-5.331-3.859-0.454-11.559-11.829-11.517c0.055,1.345,0.276,2.658,0.666,3.94c-0.976-0.35-10.155-5.933-9.903-6.168
		c3.789-3.53,4.373,3.113,8.277,0.362c-3.625-2.189-6.848-3.227-10.855-4.476c1.323-2.689,6.449-13.053,9.842-9.66
		c3.401,3.413,10.184,9.379,14.419,1.962c3.598-6.299-10.41-8.735-13.697-9.862c-2.231-0.763-2.82,1.723-3.809,3.432
		c-5.562-3.438-3.945-2.681-1.559-8.986c-6.252,0.083-11.438,3.426-17.559,3.506c-5.786,0.075-10.907-3.348-16.859-3.513
		c2.618,6.271,0.463,12.288-4.24,5.094c-1.632,1.689-25.516,9.149-10.731,11.69c3.509,0.602,7.405,3.631,9.43-1.876
		c2.277-6.191,9.058,5.345,10.982,7.832c-1.156,0.233-12.314,4.106-10.894,5.165c4.09,3.066,4.14-4.043,8.082-0.694
		c-0.635,0.346-10.161,7.393-9.969,5.991c0.372-1.276,0.569-2.585,0.592-3.926c-4.221,0.334-6.625,2.409-9.768,5.18
		c-2.768,2.439,2.715,3.945,1.922,4.498c-3.8,2.647-13.625,16.863-7.358,19.57c1.725-5.109,0.54-8.788,5.513-10.832
		c0.765,3.822-12.349,37.002-12.547,36.896c-3.453-1.867-3.115-14.132,0.149-16.404c4.497-3.13,0.607-7.248,0.804-11.516
		c0.55-11.99-7.869-20.962-12.138-31.798c-2.151-5.459-4.658-10.807-5.907-16.571c-1.349-6.222,1.738-6.193,2.244-12.505
		c0.344-4.282,4.559-3.365,7.149-5.478c4.724-3.851,1.662-3.78,8.064-1.563c1.204-7.414,11.463-6.885,7.874-16.143
		c-18.309,8.813-3.434-7.532-12.339-11.248c0.028,3.797-9.817,5.695-13.159,7.112c0.286-0.121,1.426,7.713,1.946,8.129
		c4.206,3.368-4.136,5.581-5.575,8.431c-1.974,3.909,6.044,8.853,0.681,10.993C345.514,400.153,333.535,393.512,329.019,387.497z
		 M344.492,387.263c-3.233,0.907,0.308,6.701,1.002,6.355c3.165-1.568,6.97-29.035,8.95-28.793
		c-4.539-0.733-9.093-4.232-10.459,2.95C342.498,375.591,342.213,379.372,344.492,387.263
		C344.168,387.354,343.584,384.12,344.492,387.263z M491.05,361.939c-7.844,4.278-6.823,5.703-3.2,13.665
		c2.509,5.511,1.154,14.152,5.797,18.097C500.107,385.098,496.909,369.612,491.05,361.939
		C488.272,363.454,492.46,363.786,491.05,361.939z M423.562,340.864c4.794-7.821-6.449-9.711-9.735-2.742
		C417.071,339.037,420.316,339.951,423.562,340.864C424.412,339.477,420.021,339.868,423.562,340.864z M524.31,347.339
		C520.794,357.777,532.436,364.686,524.31,347.339C523.495,349.757,526.006,350.96,524.31,347.339z M311.805,359.876
		c4.547-3.812,4.385-4.439,3.764-10.415C311.037,350.617,309.434,356.1,311.805,359.876
		C313.569,358.397,311.117,358.779,311.805,359.876z"/>
	<path fill-rule="evenodd" clip-rule="evenodd" d="M529.386,277.085c7.704,7.003,10.813,4.073,12.922,14.207
		c1.82,8.683-14.124-8.668-14.306-8.755c-4.744-2.272-18.588-1.111-23.848-1.722c-3.615-0.419-6.753,2.045-9.263-2.128
		c0.159,0.265-10.721-5.758-8.433-5.664c3.156,0.356,6.321,0.409,9.496,0.159c-2.703-5.592-7.581-5.891-11.485-10.551
		c-1.997-2.384-4.651-14.13-4.146-17.067c1.916-11.169-9.507-7.691-16.04-9.242c-8.484-2.015-18.578-8.368-27.06-3.791
		c0.899-2.277,2.14-4.22,3.236-6.417c-4.94-1.361-9.502-11.312-12.517-9.288c-6.265,4.208-8.615,7.751-15.548,1.317
		c-5.728-5.312-5.482,3.074-8.039,6.217c-3.854,4.739-5.617,0.607-2.52,8.175c-7.797-4.646-19.837,1.71-28.231,3.38
		c-10.566,2.105-11.488-1.455-14.643,9.367c-0.211,0.722-2.9,15.545-1.948,14.841c-4.601,3.402-11.608,7.778-14.252,12.769
		c3.35,1.215,6.73,1.366,10.141,0.453c-5.895,5.794-9.762,7.49-17.998,7.408c-4.237-0.042-11.852,4.43-15.231,2.113
		c-7.134-4.887-12.274,4.544-17.082,7.903c-4.741,3.313-8.069,4.151-4.442-1.305c5.1-7.672-5.752-1.48,4.108-6.418
		c3.391-1.698,10.857-6.497,13.258-9.289c2.174-2.525,23.161-21.414,11.199-15.638c0.024-5.993-2.8-6.665-8.18-6.326
		c0.049-4.268,13.556-6.737,17.502-5.155c-0.005-5.5-0.542-5.144-5.032-3.244c5.744-11.585,0.884-10.58-10.799-6.042
		c-5.372,2.085-5.948,12.771-12.543,11.967c3.733-6.56-3.399-10.062-8.766-9.902c0.292,2.647-4.145,12.833-8.327,10.006
		c1.778,1.205-0.824-10.546-0.864-10.446c-0.116,0.293,6.438,0.05,7.665-1.029c3.054-2.688,8.869-5.413,11.366-0.593
		c5.427,10.484,14.554-14.55,15.964-15.754c5.435-4.64,9.465-4.48,15.372-8.303c5.58-3.611,10.709-5.686,16.696-8.29
		c2.245-0.977,1.059-4.919-1.241-4.195c-10.146,3.196-19.401,5.165-30.25,3.519c-8.384-1.272-17.119,2.054-23.33-2.224
		c-2.055-1.416-9.08-9.775-13.275-2.197c-5.16-3.503,4.837-10.762,9.786-5.276c0.878-1.032-2.124-16.839-1.008-18.661
		c1.167-1.907,0.396-6.338,2.026-7.281c3.405-1.973,5.127-2.189,6.194-5.953c-6.122-1.095-10.786-1.836-16.677-3.97
		c-3.854-1.396-5.651,4.757-11.89,0.354c5.291-3.825,13.77-4.826,19.548-5.802c2.958-0.5,5.094,4.266,8.276,4.341
		c6.845,0.164,4.569-2.5,12.059-0.081c20.317,6.56,40.012,13.647,60.505,19.717c0.33-2.028,0.932-3.967,1.807-5.818
		c0.48-0.038,0.942,0.037,1.385,0.225c-0.32,4.612-3.291,6.035,0.411,9.005c3.315,2.66,10.31,0.838,14.473,0.906
		c-3.784,2.642-6.006,3.339-2.24,7.619c1.026,1.167,4.407-4.001,4.914-4.392c2.086-1.604,4.188,5.463,5.113,6.558
		c1.544,1.824,6.587-2.161,8.316-2.286c-0.876-1.332-1.83-2.606-2.862-3.822c4.461,0.815,6.312,2.273,10.062,4.546
		c1.187,0.719,9.328-4.262,11.39-4.542c-1.144,1.14-2.099,2.415-2.865,3.824c7.414,1.272,7.742,5.794,12.303-4.691
		c1.891,1.822,3.936,3.451,6.136,4.886c2.986-5.043,0.886-4.124-2.073-8.089c2.748,0.607,9.613,1.703,12.335,1.071
		c7.791-1.809-0.973-9.227,3.505-10.885c1.833,8.908,7.136,4.274,14.685,2.477c10.755-2.561,21.104-7.877,31.364-11.972
		c4.791-1.912,9.491-2.1,14.35-3.51c5.036-1.461,12.217,0.056,16.465-2.217c7.681-4.109,22.423,5.031,25.413,3.128
		c-5.281,3.354-8.727-1.308-12.904-0.355c-5.805,1.326-9.822,3.783-16.019,4.578c1.01,1.067,7.023,4.889,7.303,5.542
		c2.176,5.068,1.389,20.008-0.242,25.26c5.318-0.339,11.094-4.19,11.562,5.043c-4.394-2.389-9.231,0.248-13.896-1.464
		c-1.52,10.89-10.452,4.314-17.2,5.773c-6.026,1.303-14.963-1.829-20.261,0.271c-7.179,2.844-12.421-3.462-19.265-1.814
		c6.579,9.45,34.805,9.882,35.215,23.902c0.131,4.417,6.723,15.619,12.077,12.145c8.117-5.266,12.203,1.772,20.969,0.716
		c-0.96,3.663-1.28,6.664-0.522,10.404c-5.986-0.009-6.543-9.03-9.822-10.038c-6.356-1.95-9.631,5.809-8.012,10.47
		c-7.841-3.647-8.953-12.058-17.763-15.292c-13.833-5.074-4.687,5.185-5.233,9.071c-4.137-1.724-9.009,0.357-2.964,3.521
		c2.264-5.41,14.743,0.857,15.625,4.746c-2.827,0.321-6.693-1.911-7.806,2.146c-1.156,4.215-0.078,3.627-5.157,3.404
		c3.44,5.364,3.837,7.168,9.526,10.494C522.114,270.781,523.81,277.38,529.386,277.085
		C529.938,277.588,524.46,277.346,529.386,277.085z M474.022,183.074c-1.804,0.778-9.201,2.832-9.751,5.199
		c-0.885,3.801,4.997,5.132,7.279,4.687c3.286-0.642,4.15-2.743,6.259-4.851c1.912-1.911,5.842,0.245,8.526-0.076
		c-10.797,13.628,14.117,11.095,1.23-0.143c8.199-3.955,21.114-2.286,27.148-8.943c-6.507-3.13-13.733,1.693-20.781,1.187
		C484.706,179.472,482.765,188.378,474.022,183.074C471.445,184.185,475.879,184.2,474.022,183.074z M327.027,177.268
		c-9.371,5.552,21.812,8.508,24.507,10.746c-15.15,9.483,14.808,14.255,1.171,0.116c2.26,0.25,9.002,0.077,9.343,0.922
		c3.208,7.966,19.326,0.147,9.54-3.036C357.043,181.288,342.102,180.808,327.027,177.268
		C326.137,177.795,331.994,178.434,327.027,177.268z M388.656,198.576c-3.682,2.634-10.374,4.444-7.68,9.299
		c2.497,4.5,17.424,9.372,22.527,10.879C400.415,210.502,394.906,204.587,388.656,198.576
		C386.459,200.148,390.931,200.764,388.656,198.576z M454.133,209.767c0.396,0.596,0.791,1.191,1.187,1.787
		c4.918-5.237,1.438-15.894-6.243-10.764c-4.911,3.28-12.956,12.072-13.539,17.832C435.476,219.258,452.357,210.729,454.133,209.767
		C454.528,210.362,449.879,212.073,454.133,209.767z M419.773,207.365c2.065-0.35,4.023-1.029,5.874-2.039
		c-2.924-6.175-2.553-5.16,0.078-11.836c3.174-8.054-3.933-4.423-6.233-0.479c-1.039-2.622-3.193-4.124-6.463-4.507
		c-1.273,5.812,4.082,6.048,3.643,10.974C416.199,204.781,412.018,206.244,419.773,207.365
		C420.426,207.218,418.048,207.116,419.773,207.365z M350.639,177.967c0.983-0.341,1.965-0.682,2.948-1.022
		c-2.877-6.142-18.143-10.437-21.489-3.721C331.845,173.729,347.784,176.855,350.639,177.967
		C351.852,177.546,348.606,177.175,350.639,177.967z M495.94,168.549c-4.022,2.398-8.734,3.828-10.478,8.375
		c4.356,0.907,7.049-0.893,11.127-2.357c3.767-1.349,2.234,3.826,6.125,1.798C512.285,171.377,500.552,171.703,495.94,168.549
		C492.317,170.709,497.553,169.652,495.94,168.549z M379.375,231.025c4.54-10.736-13.012-5.547-18.224-4.818
		C366.266,232.729,371.313,231.025,379.375,231.025C379.734,230.177,373.857,231.025,379.375,231.025z M474.71,231.059
		c2.488-1.412,3.451-3.171,2.891-5.279c-4.541,2.069-15.109-4-16.859-1.501C453.526,234.576,468.573,231.059,474.71,231.059
		C475.623,229.767,469.594,231.059,474.71,231.059z M502.518,198.456c3.923-0.103,8.251-6.208,3.889-8.567
		C498.86,185.809,500.551,195.129,502.518,198.456C508.625,198.296,501.637,196.966,502.518,198.456z M335.403,200.376
		C343.391,186.92,325.784,186.351,335.403,200.376C337.425,196.97,333.396,197.449,335.403,200.376z M419.148,220.028
		c10.175-3.446,1.493-9.153-5.146-2.095C415.718,218.631,417.433,219.33,419.148,220.028
		C421.352,219.282,417.33,219.288,419.148,220.028z M316.905,175.67c-1.054-2.39-10.304-0.238-10.523,1.793
		C305.905,181.869,316.413,176.801,316.905,175.67C316.663,175.121,316.572,176.436,316.905,175.67z M529.538,180.466
		c1.052-0.912,2.103-1.824,3.154-2.736c-0.68-0.488-10.2-4.772-10.11-3.172C522.789,178.924,526.242,177.452,529.538,180.466
		C530.879,179.302,528.266,179.302,529.538,180.466z M347.605,246.374c-0.794-1.642-1.589-3.284-2.384-4.926
		C343.052,245.377,340.59,251.929,347.605,246.374C346.695,244.495,346.228,247.464,347.605,246.374z M497.355,246.298
		c2.68-6.039-8.922-5.846-3.084,2.67C495.3,248.078,496.327,247.188,497.355,246.298
		C497.811,245.272,496.327,247.188,497.355,246.298z"/>
	<path fill-rule="evenodd" clip-rule="evenodd" d="M647.122,503.986c-9.673,2.01-18.976,3.87-28.856,4.549
		c-4.434,0.304-10.202,1.99-14.61,1.097c-3.646-0.738-3.785-5.021-6.634-6.825c-7.495-4.747-9.008,8.037-15.944,4.628
		c-8.418-4.138-22.822-5.001-31.881-3.94c-11.631,1.361-6.664-3.345-4.4-13.036c2.036-8.715,5.899-17.889,7.26-26.534
		c0.136-0.836-7.918,3.606-9.154,4.423c-2.79,1.844-3.721,12.86-4.555,15.866c-0.354-2.26-0.389-13.057-4.891-11.561
		c-7.543,2.508-16.16,4.612-22.236,9.82c7.567,6.054,8.522,14.63,16.996,19.252c-2.073-0.114-4.03,0.367-5.871,1.442
		c3.371,8.136,8.791,0.678,6.719,10.77c-3.479-1.427-4.364-3.765-6.895,1.536c1.527,0.477,3.067,0.906,4.621,1.288
		c-4.474,7.741-16.992,14.616-26.055,15.72c1.182-7.262,5.296-5.825,8.502-11.13c3.843-6.357,0.663-10.13-1.312-15.646
		c-1.173-3.279-2.373-37.845,3.217-36.266c9.459,2.672,15.365-2.91,17.355-12.058c1.724-7.925,3.469-12.163-2.104-19.045
		c-1.816-2.244-4.489-6.11-8.128-4.642c-1.07,0.432-5.733,8.377-3.399,8.146c2.648-0.411,5.29-0.862,7.925-1.353
		c-0.746,4.043,0.344,11.547-6.364,11.02c-10.126-0.796-2.274,12.935-0.906,13.105c-3.359-0.361-2.164-1.59-5.819-2.885
		c-6.294-2.229-6.424,3.928-10.739,4.77c-11.628,2.27-2.21,8.016,0.598,0.277c6.102,7.242-7.346,12.197-12.074,15.696
		c-3.502-13.363,5.244-22.344,6.939-35.219c0.762-5.793,0.696-13.529,2.222-19.036c1.582-5.707,6.275-8.997,7.586-14.924
		c0.528,2.168,1.416,4.153,2.664,5.956c3.648-1.168,5.692-11.279,7.625-14.583c5.283,5.988,3.705,4.162,9.145,0.672
		c8.256-5.298,0.769-3.822,1.469-9.699c0.574-4.811-4.592-8.933-4.906-14.303c7.255-0.231,8.122,3.188,14.117,4.355
		c-2.849,3.078-5.03,5.679-7.269,9.298c6.025,2.985,9.228,2.537,16.019,1.107c2.516-0.529,10.982-5.449,12.614-3.982
		c8.021,7.207,16.175-0.861,20.365,12.84c-4.332,0.353-5.914-1.144-6.496,3.468c-2.851-0.837-2.222-4.736-4.908-7.744
		c-5.147,4.676-0.7,11.871,4.956,12.201c8.989,0.525,11.389,0.06,10.412,11.266c-5.271-1.452-12.042-7.217-15.119-1.839
		c-3.296-3.045-24.516-16.341-23.051-5.111c0.32,2.459-13.418,3.249-15.269,3.535c-4.916,0.766,1.319,5.411,1.59,6.295
		c1.269,4.131-4.104,6.405,0.725,10.875c3.696,3.421,5.446,2.755,9.841,0.299c6.909-3.862-1.119-6.782,1.091-11.538
		c0.175-0.375,5.748-8.283,1.88-7.883c11.487-1.332,4.76,10.684,8.536,15.924c0.953,1.323,6.853,3.189,6.064-0.4
		c-1.459-6.653,8.018-4.682,12.035-4.822c-1.523,3.354,0.116,6.993-2.433,9.991c3.452,2.307,7.888,0.529,11.671,1.951
		c-10.099,8.623,1.14,7.367,2.259,5.07c1.683-3.448,4.396-6.263,5.921-9.801c1.165-2.702-0.543-6.957,1.087-8.853
		c1.645-1.912,3.887,1.839,5.148-0.973c1.075-2.395,1.503-6.23,2.299-8.646c2.702-8.202-1.52-19.137,3.124-25.961
		c0.217-0.324,0.307,6.556,3.176,5.92c3.518-0.776,1.777,7.401,1.777,7.411c0.114,4.845,4.403,5.683,7.564,8.048
		c-9.164-1.016-4.575,13.135-3.231,17.775c1.108,3.83,1.303,7.917,1.024,11.879c-0.273,3.9,0.906,12.649-0.378,15.682
		c-2,4.721-6.349,10.11-5.11,15.601c0.567,2.515,1.478,10.309,5.763,6.979c10.603-8.228,6.498-22.63,11.744-33.228
		c1.066-2.153,0.283-8.157,2.254-9.423c4.568-2.933,2.378,8.897,2.579,7.619c-1.403,8.93-3.085,17.637-6.137,26.049
		c-3.696,10.189-0.922,9.024,5.154,12.231c6.615,3.491,3.374,15.269,9.205,19.975c7.975-11.039,5.632-28.533,11.43-41.002
		c1.374,8.607-6.772,19.732-0.273,26.972c1.246-5.437,15.637-52.038,13.866-51.862c-1.085,3.966,1.669,5.938,0.442,10.663
		c-2.171,8.343,0.106,15.339-3.206,23.86c-1.381,3.547,4.689,8.021,3.045,12.752c-1.617,4.655-7.903,15.474-0.519,16.551
		C656.158,503.51,647.415,505.701,647.122,503.986C641.283,505.199,647.149,504.146,647.122,503.986z M557.909,450.191
		c-5.553-7.693-12.979-10.148-8.432,2.23C552.896,461.711,555.242,455.307,557.909,450.191
		C556.848,448.721,556.226,453.421,557.909,450.191z M580.46,475.724c10.091-1.276,8.766-7.088,4.961-14.59
		c-0.127-0.25-8.677,2.03-0.754,6.697C581.572,470.454,577.246,472.039,580.46,475.724
		C584.916,475.16,579.967,475.158,580.46,475.724z M574.725,502.765c5.388,1.476,8.546-4.322,7.516-9.147
		c-1.079-5.069-9.864-2.62-4.688,4.138C573.776,496.959,571.6,500.473,574.725,502.765
		C576.059,503.13,574.71,502.754,574.725,502.765z M499.712,451.164c-7.466-0.797,0.559,5.9,2.37,7.515
		C504.204,455.895,501.396,453.858,499.712,451.164C498.98,451.086,500.928,453.11,499.712,451.164z"/>
	<path fill-rule="evenodd" clip-rule="evenodd" d="M290.537,505.164c-9.744-3.337-14.849-1.535-24.551,1.01
		c-3.199,0.839-9.56,4.048-12.723,1.824c-4.332-3.045-9.768-9.478-14.076-2.285c-4.636,7.74-15.436,3.891-23.966,2.742
		c-10.233-1.379-24.115-2.115-33.725-5.632c4.814-1.064,4.071-5.379,2.352-9.233c-3.678-8.246-4.173-10.894,0.231-17.745
		c1.581-2.458-5.606-17.377-4.221-22.366c0.481-1.734,1.812-12.538,1.468-14.627c-0.632-0.052,10.201,45.853,14.335,51.836
		c2.489-8.314-4.311-20.249-0.966-26.904c7.693,9.118,6.903,29.865,11.88,40.907c3.067-5.667,4.306-19.915,11.607-19.599
		c9.416,0.416,0.082-15.298-1.538-19.189c-2.402-5.754-1.033-17.64-2.469-24.434c-0.37-1.752,2.029-3.295,3.424-2.069
		c2.96,2.604,2.863,13.624,3.577,17.265c0.909,4.636,5.116,26.041,11.515,24.785c10.079-1.978,2-18.703-1.271-22.718
		c-2.309-2.834,2.77-3.396,1.656-6.774c-1.925-5.838-2.469-11.752-1.718-17.878c0.523-4.258,8.851-21.865-2.214-20.312
		c2.905-3.645,8.849-3.887,7.33-10.573c-1.255-5.525,5.119-4.368,4.21-11.017c6.183-0.562,2.934,18.542,3.085,21.906
		c0.176,3.893,2.209,7.87,2.99,11.689c0.896,4.378,3.453-0.345,5.264,2.28c2.659,3.855,3.045,11.977,5.802,16.86
		c4.143,7.341,12.194,0.932,3.672-3.578c2.175-0.33,11.017,0.417,11.61-1.975c0.007-0.03-1.948-7.921-2.354-9.967
		c2.863,0.468,6.052,1.445,8.924,0.572c-1.504,0.457,6.278,6.09,8.437,6.296c-0.054-0.005,2.934-7.266,2.042-8.762
		c-3.369-5.662,2.583-8.21,7.068-8.811c-2.599,1.355,2.626,9.948,0.923,14.409c-2.75,7.204,10.224,9.333,13.163,3.524
		c1.416-2.797,3.118-15.585,0.434-16.082c-2.771-0.512-10.539-0.46-12.773-2.244c-4.689-3.746-0.847-6.371-9.453-4.126
		c-4.724,1.232-7.912,2.837-11.839,5.597c-6.056,4.256-1.371,0.309-7.012-0.469c-2.324-0.32-6.342,3.745-8.469,4.468
		c-4.265,1.45-6.987-4.063-3.721-6.941c1.18-1.039,6.864-7.334,8.818-5.534c1.783,1.642,5.819,0.363,7.47-0.742
		c4.187-2.803-0.724-17.508-4.704-2.151c-2.042-3.86-1.661-3.421-6.99-3.339c0.992-3.377,4.71-8.295,7.984-9.798
		c2.863-1.314,5.213,3.409,9.503-0.558c5.903-5.454,9.348,0.771,15.639,2.666c4.074,1.228,22.382-2.38,12.725-6.706
		c-9.249-4.145,12.554-18.512,9.467-3.055c-1.073,0.881-2.169,1.732-3.286,2.557c-1.613,4.038-3.063,8.175-3.838,12.467
		c-1.082,5.997,16.123,6.695,13.328,2.109c2.834,4.425,3.262,11.9,7.653,14.587c0.882-2.019,1.779-4.03,2.692-6.035
		c1.792,4.661,4.848,8.823,7.289,13.166c2.675,4.765,1.313,14.554,2.115,20.011c1.825,12.419,7.887,22.804,8.602,35.462
		c-6.045-0.664-20.202-8.778-13.559-15.133c2.647,4.945,4.099,5.816,7.944,1.724c0.375-0.405-9.357-3.801-10.577-4.9
		c-5.5-4.959-8.023,0.265-13.29,0.991c1.148-7.466,10.044-13.597-2.138-13.146c-0.005-1.876-3.079-1.884-4.175-2.494
		c-0.438-0.244-0.641-7.736-0.777-8.53c2.573,0.522,5.149,1.032,7.727,1.529c0.051-17.236-18.667-1.957-15.634,7.549
		c1.497,4.694,2.275,16.534,7.596,18.847c4.771,2.073,13.718-1.553,15.355,4.599c1.958,7.355,1.154,8.785-1.042,15.085
		c-1.709,4.906,6.789,14.573-0.341,18.021c-4.619,2.239-1.967,10.884-0.248,14.108c0.904,2.002,2.358,3.421,4.36,4.257
		c4.213,1.166,2.787,4.795,4.305,7.724c-7.731,1.084-22.847-8.964-26.223-15.498c1.967,0.163,3.533-0.425,4.699-1.765
		c-5.04-4.488-3.138-3.604-6.837-0.894c-3.287-7.277,4.199-4.763,6.608-10.947c-1.834-1.061-3.786-1.541-5.855-1.443
		c8.881-4.464,8.079-12.753,15.64-17.6c5.109-3.275-20.487-10.808-23.049-11.521c-1.249,4.564-1.8,7.126-2.825,11.703
		c-2.102-7.502-1.08-13.866-7.752-18.228c-7.718-5.045-5.809-0.997-3.352,4.219C293.118,477.854,302.986,503.557,290.537,505.164
		C287.859,504.247,296.821,504.353,290.537,505.164z M280.702,449.7c2.074,4.415,6.312,13.343,9.353,3.325
		C294.147,439.556,287.162,443.288,280.702,449.7C282.093,452.661,283.2,447.221,280.702,449.7z M257.471,476.694
		c6.528-6.828-8.036-7.449,0.14-10.924c2.307-0.98-1.726-7.795-4.554-3.609C248.069,469.54,251.45,472.414,257.471,476.694
		C258.863,475.238,254.757,474.765,257.471,476.694z M263.148,504.079c2.229-2.339,4.765-8.482-1.693-6.532
		c0.66-0.696,5.917-5.528,1.323-6.033C251.163,490.24,258.855,500.677,263.148,504.079
		C264.572,502.585,260.588,502.05,263.148,504.079z M339.9,450.397c-1.787,2.793-5.08,5.297-2.961,8.298
		c1.958-1.72,3.915-3.439,5.872-5.159C341.841,452.489,340.871,451.443,339.9,450.397C338.18,453.086,341.594,452.224,339.9,450.397
		z"/>
	<path fill-rule="evenodd" clip-rule="evenodd" d="M419.45,542.967c-14.405,0-28.81,0.025-43.214-0.039
		c-9.7-0.044-20.587-0.061-15.515-13.369c3.404-8.946,5.245-6.255,16.116-5.223c12.087,1.147,23.962,3.729,36.079,4.56
		c13.439,0.921,25.76-2.856,38.953-3.263c5.835-0.18,11.525-0.903,17.3-1.699c7.758-1.068,7.996-1.854,9.299,5.693
		c2.07,11.98-1.963,13.511-12.842,13.371C450.233,542.799,434.841,542.967,419.45,542.967z"/>
	<path fill-rule="evenodd" clip-rule="evenodd" d="M396.898,442.444c-1.97,0.34-6.604,2.379-7.893-0.013
		c-0.957-1.774,0.917-5.062,2.87-5.401c2.933-0.509,15.378,2.324,15.953-2.087c1.11-8.523,9.946-7.164,3.989,1.538
		c-1.806,2.639,0.984,3.648,2.657,5.149c3.031,2.72-3.751,4.793-5.343,6.584c3.562,0.62,6.902-2.411,10.843-2.25
		c2.783,0.113,7.466,2.593,9.949,2.232c-1.226-1.373-7.296-5.154-6.128-6.266c5.261-4.998-0.237-7.113,1.308-12.914
		c6.343,1.822,4.725,0.924,5.918,6.034c0.588,2.517,4.117,3.802,6.074,1.712c0.674-0.719,11.316,1.106,12.232,1.942
		c6.57,5.996-8.578,2.798-9.164,6.661c-1.871,12.338,0.997,10.252-10.974,13.821c4.666,8.124,0.886,1.554-0.584,8.062
		c-1.063,4.708,2.923,2.931-0.98,6.854c4.312,1.537,15.024,4.304,11.403,11.075c-6.695-6.247-7.243-6.569-15.802-6.511
		c-9.889,0.068-16.895-2.134-23.208,6.508c-3.882-7.704,8.159-8.504,11.437-11.084c-4.817-4.719-4.247-9.85-1.591-14.92
		c0.168,0.068-10.599-3.131-10.496-2.049C398.762,450.782,401.29,447.143,396.898,442.444
		C394.333,442.887,398.165,443.8,396.898,442.444z"/>
	<path fill-rule="evenodd" clip-rule="evenodd" d="M92.379,450.861c12.92,5.521,20.84,9.938,24.355,24.782
		c1.317,5.563-1.683,7.261,3.498,10.74c4.304,2.891,9.537,3.122,12.59,7.368c-13.939-0.812-29.339-2.092-32.403-17.648
		c-0.633-3.152-1.273-6.303-1.92-9.452c-0.435-2.183,4.479-1.934,3.689-4.919c-1.061-4.006-9.605-7.966-12.613-10.422
		C90.51,451.161,91.445,451.011,92.379,450.861C94.991,451.978,91.186,451.053,92.379,450.861z"/>
	<path fill-rule="evenodd" clip-rule="evenodd" d="M749.622,451.699c-2.945,1.783-12.736,7.988-12.275,11.667
		c0.64,5.103,5.148,7.026,2.484,13.775c-5.211,13.201-20.149,16.663-33.599,16.561c1.238-4.042,8.245-4.205,11.532-5.381
		c8.66-3.096,1.152-12.896,6.762-16.737c4.735-3.248,3.533-12.255,10.299-16.077C736.396,454.62,749.207,450.572,749.622,451.699
		C748.798,452.198,749.453,451.24,749.622,451.699z"/>
	<path fill-rule="evenodd" clip-rule="evenodd" d="M672.201,484.275c13.482-0.053,5.516-23.012,18.459-27.626
		c0.814,10.866-7.211,24.255-9.226,35.187c-1.424,7.728-0.114,6.624-8.63,8.153C672.268,496.856,666.116,483.613,672.201,484.275
		C677.417,484.255,669.582,483.99,672.201,484.275z"/>
	<path fill-rule="evenodd" clip-rule="evenodd" d="M169.934,485.14c-1.567,4.989-3.77,9.814-4.114,14.992
		c-11.987-2.633-7.354-4.743-9.268-15.323c-1.685-9.303-6.65-18.252-8.371-27.826c4.25-0.394,9.355,12.372,10.038,15.581
		C160.515,483.348,161.193,481.468,169.934,485.14C168.722,488.997,169.594,484.997,169.934,485.14z"/>
	<path fill-rule="evenodd" clip-rule="evenodd" d="M568.882,166.707c1.444-7.516,6.178-17.521,10.312-24.163
		c1.798-2.89,8.664,5.743,10.217,6.763c-2.005,1.718-10.725,9.259-11.071,11.359C577.639,164.895,572.882,172.978,568.882,166.707
		C569.116,165.487,569.343,167.43,568.882,166.707z"/>
	<path fill-rule="evenodd" clip-rule="evenodd" d="M265.092,155.506c2.447,5.057,3.628,7.583,3.933,13.397
		c-7.718-2.688-5.252-7.738-10.634-11.29c-2.927-1.932-7.788-4.471-8.246-8.57c0.068,0.609,7.452-7.278,6.718-7.106
		C261.625,140.818,266.482,154.877,265.092,155.506C266.3,158.002,265.492,155.325,265.092,155.506z"/>
	<path fill-rule="evenodd" clip-rule="evenodd" d="M693.873,382.814c10.51,12.229,31.602,16.435,42.602,28.897
		C725.47,407.477,693.873,398.73,693.873,382.814C694.828,383.926,693.873,383.553,693.873,382.814z"/>
	<path fill-rule="evenodd" clip-rule="evenodd" d="M145.687,383.982c-9.968,13.916-26.104,23.383-43.129,27.636
		C106.315,407.528,143.653,381.594,145.687,383.982C145.001,384.939,145.34,383.575,145.687,383.982z"/>
	<path fill-rule="evenodd" clip-rule="evenodd" d="M582.876,255.515c-8.523,0.711-8.18-1.335-5.465-8.338
		c2.979,2.226,13.137,0.261,14.296,2.141C594.544,253.92,582.966,255.994,582.876,255.515
		C581.413,255.637,582.902,255.656,582.876,255.515z"/>
	<path fill-rule="evenodd" clip-rule="evenodd" d="M260.974,256.042c-5.926-0.923-10.762-0.985-13.4-7.068
		c4.467,1.513,8.621-0.446,13.131-1.29C265.561,246.774,264.408,254.267,260.974,256.042
		C257.82,255.551,261.884,255.572,260.974,256.042z"/>
	<path fill-rule="evenodd" clip-rule="evenodd" d="M329.039,387.477c-2.875-0.31-4.8,0.585-7.846,0.088
		c2.726-3.397,1.191-7.247,0.22-11.119c7.999,2.201,2.979-5.446,4.394-10.03C330.251,373.217,326.407,380.932,329.039,387.477z"/>
	<path fill-rule="evenodd" clip-rule="evenodd" d="M510.054,387.497c2.219-1.532,1.787-16.733,3.431-21.023
		c0.471,4.963-3.022,10.979,4.169,9.969c-0.022,1.338-2.155,12.337,0.197,11.065C515.274,388.896,511.708,388.216,510.054,387.497z"
		/>
	<path fill-rule="evenodd" clip-rule="evenodd" d="M458.421,152.505c1.583-0.779,2.636-0.359,3.41,1.127
		c-6.872-0.834-9.718,0.953-15.706-3.167c2.736-1.703,6.293-7.046,9.401-6.97C450.998,147.995,454.165,151.183,458.421,152.505
		C458.721,152.358,456.751,151.986,458.421,152.505z"/>
	<path fill-rule="evenodd" clip-rule="evenodd" d="M386.78,154.972c0.577,0.078-10.058-1.173-9.441-1.699
		c5.006-4.359,11.444,0.367,6.571-9.861C392.267,148.11,394.895,149.147,386.78,154.972
		C382.94,154.455,388.513,153.729,386.78,154.972z"/>
	<path fill-rule="evenodd" clip-rule="evenodd" d="M249.813,516.818c6.064-0.36,15.57-2.707,21.368-1.04
		c-6.808,3.953-23.99,4.315-32.012,4.285C239.217,516.434,249.747,515.605,249.813,516.818
		C256.712,516.408,249.81,516.747,249.813,516.818z"/>
	<path fill-rule="evenodd" clip-rule="evenodd" d="M598.549,520.091c-7.846-0.973-24.135,0.051-30.663-4.295
		c6.733-2.225,18.889,0.422,25.996,0.905C594.992,516.776,602.896,519.266,598.549,520.091
		C587.856,518.766,598.245,520.148,598.549,520.091z"/>
	<path fill-rule="evenodd" clip-rule="evenodd" d="M451.801,177.123c-5.815,1.774-21.333-7.339-22.865-13.153
		C436.978,167.442,444.654,172.077,451.801,177.123C450.521,177.513,449.7,175.64,451.801,177.123z"/>
	<path fill-rule="evenodd" clip-rule="evenodd" d="M410.562,164.024c-3.707,7.048-15.217,9.473-21.946,13.71
		C387.77,175.837,407.543,163.179,410.562,164.024C409.89,165.303,410.461,163.996,410.562,164.024z"/>
	<path fill-rule="evenodd" clip-rule="evenodd" d="M338.844,297.348c-5.292,6.646-5.86,1.314-11.4-0.907
		C330.901,293.473,334.719,296.156,338.844,297.348C337.12,299.513,335.137,296.276,338.844,297.348z"/>
	<path fill-rule="evenodd" clip-rule="evenodd" d="M512.452,295.857c-5.107,3.243-0.043,5.688-8.688,5.144
		C498.832,300.687,506.771,292.401,512.452,295.857C511.483,296.473,511.744,295.427,512.452,295.857z"/>
	<path fill-rule="evenodd" clip-rule="evenodd" d="M371.773,499.744c2.188-1.007,3.942-0.623,5.264,1.151
		c-3.546,0.665-8.961-0.578-11.052-3.859C370.279,494.308,378.768,492.889,371.773,499.744
		C372.944,499.62,372.759,498.777,371.773,499.744z"/>
	<path fill-rule="evenodd" clip-rule="evenodd" d="M464.754,501.586c-0.91-0.238-1.819-0.478-2.729-0.716
		c3.452-2.961,3.05-2.276,4.744-7.692C475.701,498.069,471.484,498.321,464.754,501.586
		C463.595,501.282,466.785,500.601,464.754,501.586z"/>
	<path fill-rule="evenodd" clip-rule="evenodd" d="M602.637,390.68c3.109,4.01,8.917,9.074,9.056,14.23
		C608.561,404.826,601.152,393.512,602.637,390.68C604.07,392.528,602.31,391.304,602.637,390.68z"/>
	<path fill-rule="evenodd" clip-rule="evenodd" d="M227.583,405.562c0-2.147,6.214-15.388,8.948-14.43
		C237.506,391.477,229.731,404.97,227.583,405.562C227.583,404.291,228.576,405.288,227.583,405.562z"/>
	<path fill-rule="evenodd" clip-rule="evenodd" d="M434.31,503.454c1.454-2.308,2.908-4.615,4.362-6.923
		c1.531,2.142,3.063,4.283,4.595,6.425C439.385,505.278,438.683,504.868,434.31,503.454
		C436.172,500.498,436.671,504.218,434.31,503.454z"/>
	<path fill-rule="evenodd" clip-rule="evenodd" d="M404.31,502.896c-2.752,2.963-4.928,1.035-8.503,0.018
		c1.543-2.131,3.087-4.262,4.63-6.393C401.728,498.646,403.019,500.771,404.31,502.896
		C403.403,503.872,402.949,500.655,404.31,502.896z"/>
	<path fill-rule="evenodd" clip-rule="evenodd" d="M559.556,306.456C554.797,311.793,552.606,279.906,559.556,306.456
		C559.692,306.303,558.635,302.938,559.556,306.456z"/>
	<path fill-rule="evenodd" clip-rule="evenodd" d="M280.759,307.489c-3.707-2.758,0.856-10.816,4.902-10.855
		C284.901,300.59,284.018,304.924,280.759,307.489C280.204,307.076,281.508,306.899,280.759,307.489z"/>
	<path fill-rule="evenodd" clip-rule="evenodd" d="M268.723,227.29c-0.069,0.936,0.491,9.151-1.705,8.386
		c-3.726-1.306-0.647-9.164,1.236-11.161C270.425,226.463,270.581,227.388,268.723,227.29
		C268.52,230.026,269.064,227.249,268.723,227.29z"/>
	<path fill-rule="evenodd" clip-rule="evenodd" d="M573.028,229.063c1.621,3.205,1.177,5.424-1.333,6.657
		c-0.614-1.639-0.661-11.585-0.343-11.104C574.829,227.227,575.388,228.708,573.028,229.063
		C573.119,230.901,573.336,228.976,573.028,229.063z"/>
	<path fill-rule="evenodd" clip-rule="evenodd" d="M720.199,202.826c-2.901-2.036-7.238-3.671-8.071-7.323
		c3.167,2.516,6.844,4.324,10.153,6.645C721.587,202.373,720.894,202.6,720.199,202.826
		C717.834,201.166,721.362,202.446,720.199,202.826z"/>
	<path fill-rule="evenodd" clip-rule="evenodd" d="M119.179,202.527c-0.774-0.09-1.548-0.181-2.322-0.271
		c2.88-2.677,6.428-4.737,9.651-6.974C128.314,198.143,120.945,201.399,119.179,202.527
		C117.995,202.389,120.971,201.382,119.179,202.527z"/>
	<path fill-rule="evenodd" clip-rule="evenodd" d="M562.037,198.952c0.228-0.286,5.062-7.889,5.751-5.366
		c0.737,2.687-2.73,8.107-4.053,10.386C563.405,202.225,562.84,200.551,562.037,198.952
		C563.53,197.077,562.659,200.523,562.037,198.952z"/>
	<path fill-rule="evenodd" clip-rule="evenodd" d="M276.749,198.677c-0.327,1.69-0.408,3.811-1.361,5.301
		c-1.998-2.735-4.319-7.32-3.917-10.729C273.889,194.17,275.173,196.716,276.749,198.677
		C276.317,200.907,275.737,197.418,276.749,198.677z"/>
	<path fill-rule="evenodd" clip-rule="evenodd" d="M579.265,231.554c1.695-0.345,3.405-0.523,5.132-0.535
		c-2.881-0.569-3.862,5.103-4.243,6.841C577.905,236.104,574.833,234.213,579.265,231.554
		C583.705,230.907,579.792,231.238,579.265,231.554z"/>
	<path fill-rule="evenodd" clip-rule="evenodd" d="M256.856,230.617c2.391,1.805,7.599,3.753,3.659,6.744
		c-2.032,1.543-4.896-5.257-6.175-6.174C255.179,230.997,256.018,230.807,256.856,230.617
		C258.37,231.76,255.258,230.979,256.856,230.617z"/>
	<path fill-rule="evenodd" clip-rule="evenodd" d="M623.235,431.428c-0.079,0.753-0.784,7.009-1.532,5.989
		c-2.82-3.906-0.394-8.291,0.764-12.663C623.636,428.847,623.656,428.066,623.235,431.428
		C623.158,432.162,623.488,429.408,623.235,431.428z"/>
	<path fill-rule="evenodd" clip-rule="evenodd" d="M217.551,431.137c1.133,3.24,2.101,4.375-0.766,6.377
		c-0.064-4.182-1.074-8.66-0.19-12.764C217.888,426.642,218.206,428.771,217.551,431.137
		C217.763,431.744,217.551,428.998,217.551,431.137z"/>
	<path fill-rule="evenodd" clip-rule="evenodd" d="M251.037,244.61c-1.651-2.324,7.553-4.504,8.67,0.748
		C256.922,244.719,253.874,244.792,251.037,244.61C251.424,245.155,254.178,244.812,251.037,244.61z"/>
	<path fill-rule="evenodd" clip-rule="evenodd" d="M590.077,244.712c-3.621,0-7.194-0.022-10.801,0.322
		C582.398,240.833,586.629,242.079,590.077,244.712C586.98,244.712,588.245,243.313,590.077,244.712z"/>
	<path fill-rule="evenodd" clip-rule="evenodd" d="M245.395,266.215c0.28-1.678,0.561-3.357,0.841-5.035
		c4.891,1.727,5.107,4.007,0.646,6.842C246.386,267.419,245.891,266.817,245.395,266.215
		C245.701,264.38,245.897,266.825,245.395,266.215z"/>
	<path fill-rule="evenodd" clip-rule="evenodd" d="M592.521,267.806c-4.823-2.633-4.709-4.845,0.344-6.636
		C594.111,264.295,593.511,264.614,592.521,267.806C591.331,266.545,593.308,265.269,592.521,267.806z"/>
	<path fill-rule="evenodd" clip-rule="evenodd" fill="#FFFFFF" d="M377.136,116.505c-2.703,0.653-5.439,1.035-8.208,1.147
		c-0.009-0.383,0.812-5.174,0.918-4.841c-0.658-2.07-17.119-2.729-19.113-3.014c-2.532-0.361-18.857-7.651-18.455-10.018
		c-0.306,1.796,19.689-6.085,15.993-9.506c-5.579-5.161-11.764-9.322-18.066-13.567c-6.302-4.245,20.152-5.564,23.024-5.224
		c9.668,1.148,15.792,9.703,24.524,11.136c10.048,1.648,21.023-3.369,30.686-5.399c17.325-3.641,40.905,12.224,56.161,3.247
		c9.348-5.5,19.24-8.196,30.061-9.467c9.218-1.083,20.697,0.968,9.364,9.157c-3.942,2.85-18.006,8.587-10.359,14.043
		c2.484,1.772,3.504,5.421,7.179,5.111c1.548-0.13,5.275-2.735,5.983,0.422c0.546,2.432-14.937,9.742-17.72,10.188
		c-2.249,0.36-18.877,0.26-19.877,2.818c0.191-0.49,0.94,4.64,0.938,4.886c-4.115-0.231-7.692-1.338-11.587-2.661
		c2.535-1.635,5.28-2.596,8.236-2.884c-8.938-7.061,4.454-12.78,9.261-17.109c-10.046-1.111-20.442-5.094-30.597-3.535
		c-4.179,0.642-8.464,4.154-12.643,3.752c-4.69-0.451-8.804-3.393-13.58-3.462c-2.753-0.041-5.432,2.697-8.16,3.322
		c-7.001,1.604-8.611-1.627-14.756-3.522c-7.583-2.34-26.426-0.121-33.368,3.405c5.357,5.011,16.99,8.963,9.261,17.109
		c2.866,1.193,5.456,1.565,8.232,3.115C379.078,117.451,377.966,117.902,377.136,116.505
		C375.274,116.83,377.288,116.691,377.136,116.505z"/>
	<path fill-rule="evenodd" clip-rule="evenodd" fill="#FFFFFF" d="M492.924,110.181
		C508.847,119.805,483.293,117.594,492.924,110.181C495.16,111.533,491.436,111.327,492.924,110.181z"/>
	<path fill-rule="evenodd" clip-rule="evenodd" fill="#FFFFFF" d="M345.371,117.439c-8.809,2.324-3.216-10.475,4.115-4.29
		C348.114,114.579,346.743,116.009,345.371,117.439C341.342,118.502,346.743,116.009,345.371,117.439z"/>
	<path fill-rule="evenodd" clip-rule="evenodd" fill="#FFFFFF" d="M399.127,111.791c4.065,5.122,0.619,7.431-4.423,4.013
		C396.179,114.466,397.653,113.129,399.127,111.791C400.36,113.344,397.258,113.487,399.127,111.791z"/>
	<path fill-rule="evenodd" clip-rule="evenodd" fill="#FFFFFF" d="M442.446,110.811
		C447.785,124.755,429.843,112.917,442.446,110.811C443.097,112.51,441.23,111.014,442.446,110.811z"/>
	<path fill-rule="evenodd" clip-rule="evenodd" fill="#FFFFFF" d="M694.094,172.626c-5.958,10.794-12.438,21.4-15.756,33.096
		c-1.236,4.358-6.866,15.866-5.679,20.148c1.419,5.112,5.544-1.566,1.085,8.458c-14.043-6.64-4.834-28.507-2.167-40.333
		c1.461-6.482,0.002-16.164,5.743-20.468c3.959-2.969,7.91-2.811,8.88,2.784C689.003,173.684,690.083,172.413,694.094,172.626
		C689.49,180.966,693.424,172.59,694.094,172.626z"/>
	<path fill-rule="evenodd" clip-rule="evenodd" fill="#FFFFFF" d="M688.087,314.526c-9.562-2.362-8.114-6.598-10.288-15.851
		c-0.802-3.409-4.292-18.066,2.851-15.723c6.56,2.152,10.842,15.443,11.826,21.483C693.644,311.6,695.902,312.786,688.087,314.526
		C686.34,314.095,692.024,313.649,688.087,314.526z"/>
	<path fill-rule="evenodd" clip-rule="evenodd" fill="#FFFFFF" d="M715.292,143.291c-4.256,11.63-5.167,8.791-15.565,1.823
		C699.673,145.078,709.48,135.947,715.292,143.291C714.332,145.915,714.04,141.709,715.292,143.291z"/>
	<path fill-rule="evenodd" clip-rule="evenodd" fill="#FFFFFF" d="M690.468,251.992c-3.087,0.037-6.062-3.607-6.776-6.288
		c-1.014-3.802,4.884-4.486,7.087-5.35c-3.11,1.219,6.514,6.598,7.09,6.942C695.66,249.266,693.193,250.831,690.468,251.992
		C686.781,252.036,691.391,251.51,690.468,251.992z"/>
	<path fill-rule="evenodd" clip-rule="evenodd" fill="#FFFFFF" d="M672.179,241.807c6.104,2.75,9.571,6.695,9.81,14.335
		C677.311,255.748,667.295,243.738,672.179,241.807C675.254,243.192,671.188,242.198,672.179,241.807z"/>
	<path fill-rule="evenodd" clip-rule="evenodd" fill="#FFFFFF" d="M719.714,230.545c-0.898-4.385-1.215-3.189,3.051-7.405
		C725.457,226.439,723.071,228.746,719.714,230.545C719.465,229.33,720.677,230.029,719.714,230.545z"/>
	<path fill-rule="evenodd" clip-rule="evenodd" fill="#FFFFFF" d="M164.025,178.523c3.486,13.155,7.192,25.751,8.226,39.347
		c0.84,11.056-10.485,24.255-5.391,7.165c1.186-3.979-7.679-30.426-10.909-32.918c-5.248-4.048-12.387-27.253-3.233-15.813
		c1.021-9.554,9.144-2.706,13.39,0.75C165.413,177.544,164.719,178.033,164.025,178.523
		C166.346,187.28,164.719,178.033,164.025,178.523z"/>
	<path fill-rule="evenodd" clip-rule="evenodd" fill="#FFFFFF" d="M156.781,314.345c-9.189-0.523-12.735,0.707-10.389-9.388
		c2.117-9.11,5.4-15.072,11.509-21.975c4.793-5.414,4.239,11.127,4.25,10.844C161.895,300.858,159.474,307.911,156.781,314.345
		C152.461,314.099,157.341,313.006,156.781,314.345z"/>
	<path fill-rule="evenodd" clip-rule="evenodd" fill="#FFFFFF" d="M129.185,138.767c8.07,3.167,15.061,3.641,4.752,9.886
		C121.962,155.908,122.792,138.987,129.185,138.767C132.461,140.052,125.772,138.884,129.185,138.767z"/>
	<path fill-rule="evenodd" clip-rule="evenodd" fill="#FFFFFF" d="M150.35,252.877c-10.445-5.148-7.575-3.484-2.774-10.676
		c2.412-3.614,5.181-1.904,6.869,1.541C156.098,247.119,152.037,250.463,150.35,252.877
		C146.838,251.146,151.859,250.717,150.35,252.877z"/>
	<path fill-rule="evenodd" clip-rule="evenodd" fill="#FFFFFF" d="M157.932,256.916c-2.841-9.201,3.365-12.955,11.243-14.479
		c-1.808,6.06-2.826,2.734-5.791,6.896C161.575,251.874,164.187,258.159,157.932,256.916
		C157.552,255.687,158.615,257.051,157.932,256.916z"/>
	<path fill-rule="evenodd" clip-rule="evenodd" fill="#FFFFFF" d="M116.868,229.962c-1.326-3.125-2.721-4.248-0.523-6.81
		C121.027,227.885,120.647,226.416,116.868,229.962C115.891,227.659,118.572,228.363,116.868,229.962z"/>
	<path fill-rule="evenodd" clip-rule="evenodd" fill="#FFFFFF" d="M344.492,387.263c-1.299-4.498-4.929-28.714,6.739-23.609
		c4.535,1.984,3.451,2.098,1.445,6.95c-2.19,5.296-1.994,20.443-7.182,23.015C344.8,393.964,341.259,388.17,344.492,387.263
		C343.584,384.12,344.168,387.354,344.492,387.263z"/>
	<path fill-rule="evenodd" clip-rule="evenodd" fill="#FFFFFF" d="M491.05,361.939c5.859,7.673,9.058,23.158,2.597,31.762
		c-4.643-3.944-3.288-12.586-5.797-18.097C484.227,367.643,483.206,366.218,491.05,361.939
		C492.46,363.786,488.272,363.454,491.05,361.939z"/>
	<path fill-rule="evenodd" clip-rule="evenodd" fill="#FFFFFF" d="M423.562,340.864c-3.246-0.913-6.491-1.827-9.736-2.742
		C417.113,331.155,428.356,333.042,423.562,340.864C420.021,339.868,424.412,339.477,423.562,340.864z"/>
	<path fill-rule="evenodd" clip-rule="evenodd" fill="#FFFFFF" d="M524.31,347.339C532.436,364.686,520.794,357.777,524.31,347.339
		C526.006,350.96,523.495,349.757,524.31,347.339z"/>
	<path fill-rule="evenodd" clip-rule="evenodd" fill="#FFFFFF" d="M311.805,359.876c-2.371-3.776-0.769-9.259,3.764-10.415
		C316.19,355.437,316.353,356.064,311.805,359.876C311.117,358.779,313.569,358.397,311.805,359.876z"/>
	<path fill-rule="evenodd" clip-rule="evenodd" fill="#FFFFFF" d="M474.022,183.074c7.529,4.568,7.823-0.259,15.31-2.513
		c5.78-1.741,20.146-4.133,25.383-1.614c-6.034,6.657-18.949,4.988-27.148,8.943c12.887,11.238-12.027,13.771-1.23,0.143
		c-2.685,0.321-6.614-1.834-8.526,0.076c-2.108,2.107-2.973,4.209-6.259,4.851c-2.282,0.445-8.164-0.886-7.279-4.687
		C464.821,185.906,472.219,183.852,474.022,183.074C475.879,184.2,471.445,184.185,474.022,183.074z"/>
	<path fill-rule="evenodd" clip-rule="evenodd" fill="#FFFFFF" d="M327.027,177.268c15.075,3.541,30.017,4.021,44.562,8.749
		c2.433,0.575,3.476,2,3.127,4.276c-2.002,4.322-9.013,0.77-11.734,0.094c-2.104-0.521-0.662-5.461-3.95-1.419
		c-0.411,0.504-5.963-0.798-6.326-0.838c13.637,14.139-16.321,9.367-1.171-0.116C348.839,185.776,317.656,182.819,327.027,177.268
		C331.994,178.434,326.137,177.795,327.027,177.268z"/>
	<path fill-rule="evenodd" clip-rule="evenodd" fill="#FFFFFF" d="M388.656,198.576c6.25,6.011,11.759,11.926,14.847,20.178
		c-3.998-0.738-7.59-2.375-10.779-4.911c-0.039-0.024-9.323-2.96-9.764-3.365C376.192,204.268,383.71,202.115,388.656,198.576
		C390.931,200.764,386.459,200.148,388.656,198.576z"/>
	<path fill-rule="evenodd" clip-rule="evenodd" fill="#FFFFFF" d="M454.133,209.767c-1.775,0.962-18.657,9.491-18.596,8.855
		c0.583-5.76,8.628-14.552,13.539-17.832c7.682-5.13,11.161,5.526,6.243,10.764C454.924,210.958,454.528,210.363,454.133,209.767
		C449.879,212.073,454.528,210.362,454.133,209.767z"/>
	<path fill-rule="evenodd" clip-rule="evenodd" fill="#FFFFFF" d="M419.773,207.365c-1.532-0.222-8.594-1.412-4.811-4.975
		c4.447-4.193-3.055-8.767-1.934-13.887c3.27,0.383,5.424,1.885,6.463,4.507c2.3-3.943,9.407-7.575,6.233,0.479
		c-2.631,6.676-3.002,5.662-0.078,11.836C423.797,206.336,421.838,207.016,419.773,207.365
		C418.048,207.116,420.426,207.218,419.773,207.365z"/>
	<path fill-rule="evenodd" clip-rule="evenodd" fill="#FFFFFF" d="M350.639,177.967c-2.854-1.112-18.793-4.238-18.541-4.744
		c3.347-6.716,18.612-2.42,21.489,3.721C352.604,177.286,351.622,177.626,350.639,177.967
		C348.606,177.175,351.852,177.546,350.639,177.967z"/>
	<path fill-rule="evenodd" clip-rule="evenodd" fill="#FFFFFF" d="M495.94,168.549c-0.142-0.097,16.824,5.739,9.107,6.815
		c-1.438,0.771-2.963,1.285-4.573,1.542c-0.225-2.076-1.067-2.952-2.528-2.629c-4.745,0.63-7.519,3.68-12.483,2.646
		C487.206,172.376,491.918,170.947,495.94,168.549C497.553,169.652,492.317,170.709,495.94,168.549z"/>
	<path fill-rule="evenodd" clip-rule="evenodd" fill="#FFFFFF" d="M379.375,231.025c-8.062,0-13.109,1.704-18.224-4.818
		C366.363,225.478,383.915,220.289,379.375,231.025C373.857,231.025,379.734,230.177,379.375,231.025z"/>
	<path fill-rule="evenodd" clip-rule="evenodd" fill="#FFFFFF" d="M474.71,231.059c-6.137,0-21.184,3.517-13.969-6.78
		c1.75-2.499,12.318,3.571,16.859,1.501C478.161,227.888,477.198,229.647,474.71,231.059
		C469.594,231.059,475.623,229.767,474.71,231.059z"/>
	<path fill-rule="evenodd" clip-rule="evenodd" fill="#FFFFFF" d="M502.518,198.456c-1.967-3.327-3.657-12.647,3.889-8.567
		C510.769,192.248,506.44,198.354,502.518,198.456C501.637,196.966,508.625,198.296,502.518,198.456z"/>
	<path fill-rule="evenodd" clip-rule="evenodd" fill="#FFFFFF" d="M335.403,200.376C325.784,186.351,343.391,186.92,335.403,200.376
		C333.396,197.449,337.425,196.97,335.403,200.376z"/>
	<path fill-rule="evenodd" clip-rule="evenodd" fill="#FFFFFF" d="M419.148,220.028c-1.715-0.698-3.43-1.397-5.146-2.095
		C420.641,210.875,429.323,216.583,419.148,220.028C417.33,219.288,421.352,219.282,419.148,220.028z"/>
	<path fill-rule="evenodd" clip-rule="evenodd" fill="#FFFFFF" d="M316.905,175.67c-0.893,2.051-7.392,4.56-10.429,2.834
		C305.314,177.846,315.257,171.932,316.905,175.67C316.572,176.436,316.663,175.121,316.905,175.67z"/>
	<path fill-rule="evenodd" clip-rule="evenodd" fill="#FFFFFF" d="M529.538,180.466c-3.296-3.014-6.749-1.542-6.956-5.908
		c-0.09-1.601,9.431,2.684,10.11,3.172C531.641,178.642,530.59,179.554,529.538,180.466
		C528.266,179.302,530.879,179.302,529.538,180.466z"/>
	<path fill-rule="evenodd" clip-rule="evenodd" fill="#FFFFFF" d="M347.605,246.374c-7.015,5.555-4.553-0.997-2.384-4.926
		C346.016,243.09,346.811,244.732,347.605,246.374C346.228,247.464,346.695,244.495,347.605,246.374z"/>
	<path fill-rule="evenodd" clip-rule="evenodd" fill="#FFFFFF" d="M497.355,246.298c-1.028,0.89-2.056,1.78-3.084,2.67
		C488.434,240.452,500.035,240.259,497.355,246.298C496.327,247.188,497.811,245.272,497.355,246.298z"/>
	<path fill-rule="evenodd" clip-rule="evenodd" fill="#FFFFFF" d="M557.909,450.191c-2.667,5.115-5.014,11.52-8.432,2.23
		C544.93,440.043,552.356,442.498,557.909,450.191C556.226,453.421,556.848,448.721,557.909,450.191z"/>
	<path fill-rule="evenodd" clip-rule="evenodd" fill="#FFFFFF" d="M580.46,475.724c-3.214-3.685,1.112-5.27,4.207-7.893
		c-7.923-4.667,0.627-6.947,0.754-6.697C589.226,468.636,590.551,474.447,580.46,475.724
		C579.967,475.158,584.916,475.16,580.46,475.724z"/>
	<path fill-rule="evenodd" clip-rule="evenodd" fill="#FFFFFF" d="M574.725,502.765c-3.125-2.292-0.948-5.806,2.828-5.01
		c-5.177-6.758,3.608-9.207,4.688-4.138C583.271,498.442,580.112,504.24,574.725,502.765
		C574.71,502.754,576.059,503.13,574.725,502.765z"/>
	<path fill-rule="evenodd" clip-rule="evenodd" fill="#FFFFFF" d="M499.712,451.164c1.683,2.693,4.495,4.732,2.369,7.515
		C500.27,457.063,492.247,450.367,499.712,451.164C500.928,453.11,498.98,451.086,499.712,451.164z"/>
	<path fill-rule="evenodd" clip-rule="evenodd" fill="#FFFFFF" d="M280.702,449.7c3.167-3.145,11.192-12.433,10.193-1.406
		C289.792,460.545,284.787,458.395,280.702,449.7C283.2,447.221,282.093,452.661,280.702,449.7z"/>
	<path fill-rule="evenodd" clip-rule="evenodd" fill="#FFFFFF" d="M257.471,476.694c-5.966-4.242-7.793-4.539-5.589-11.804
		c1.029-3.387,6.545-5.997,6.196-0.67c-0.165,2.515-6.429,3.501-2.361,5.351C260.218,471.617,261.171,472.824,257.471,476.694
		C254.757,474.765,258.863,475.238,257.471,476.694z"/>
	<path fill-rule="evenodd" clip-rule="evenodd" fill="#FFFFFF" d="M263.148,504.079c-2.056-1.629-13.006-11.635-3.352-12.612
		c6.492-0.658,4.24,3.355,1.658,6.08C267.914,495.597,265.377,501.74,263.148,504.079
		C260.588,502.05,264.572,502.585,263.148,504.079z"/>
	<path fill-rule="evenodd" clip-rule="evenodd" fill="#FFFFFF" d="M339.9,450.397c0.971,1.046,1.941,2.092,2.911,3.139
		c-1.958,1.72-3.915,3.439-5.873,5.159C334.821,455.693,338.113,453.191,339.9,450.397
		C341.594,452.224,338.18,453.086,339.9,450.397z"/>
</g>
</svg>
